# xmcd
#
# Track frame offsets: 
#        150
#        14760
#        33683
#        49070
#        68665
#        94135
#        117745
#        138615
#        154533
#        181368
#
# Disc length: 2630 seconds
#
# Revision: 4
# Processed by: cddbd v1.5.2PL0 Copyright (c) Steve Scherf et al.
# Submitted via: ExactAudioCopy v0.90b4
#
DISCID=8f0a440a
DTITLE=Nathan Cavaleri Band - Nathan
DYEAR=1994
DGENRE=Blues
TTITLE0=Lou's Blues
TTITLE1=Workin' On It
TTITLE2=Summertime Blues
TTITLE3=Coda
TTITLE4=Back To The Blues
TTITLE5=If Loving You Is Wrong (I don't Want To Be Right)
TTITLE6=Southern Nights
TTITLE7=Steal Away
TTITLE8=Bluzchanan
TTITLE9=Noodling
EXTD=
EXTT0=
EXTT1=
EXTT2=
EXTT3=
EXTT4=
EXTT5=
EXTT6=
EXTT7=
EXTT8=
EXTT9=
PLAYORDER=
